# xmcd CD database file
#
# Track frame offsets:
#	150
#	11540
#	24877
#	37672
#	51865
#	64235
#	75897
#	88457
#	102645
#	123082
#
# Disc length: 1809 seconds
#
# Revision: 2
# Processed by: cddbd v1.4PL0 Copyright (c) Steve Scherf et al.
# Submitted via: CDex 1.50
#
DISCID=6f070f0a
DTITLE=Various Artist - All The Best
DYEAR=1993
DGENRE=Country
TTITLE0=Bing Bang Boom - Highway 101
TTITLE1=Small Town Saturday Night - Hal Ketchum
TTITLE2=You Really Had Me Going - Holly Dunn
TTITLE3=Billy The Kid - Billy Dean
TTITLE4=Strong Enough To Bend - Tanya Tucker
TTITLE5=Whatcha Gonna Do With A Cowboy - Chris LeDoux with Garth Brooks
TTITLE6=Tryin' To Make A Living On The Road - John Anderson
TTITLE7=Drive South - Suzy Bogguss
TTITLE8=Start All Over Again - Desert Rose Band
TTITLE9=Can You Feel It
EXTD=YEAR: 1993
EXTT0=
EXTT1=
EXTT2=
EXTT3=
EXTT4=
EXTT5=
EXTT6=
EXTT7=
EXTT8=
EXTT9=
PLAYORDER=
